<?xml version="1.0" encoding="utf-8"?>
<!-- Generator: Adobe Illustrator 19.2.1, SVG Export Plug-In . SVG Version: 6.00 Build 0)  -->
<svg version="1.1" id="Capa_1" xmlns="http://www.w3.org/2000/svg" xmlns:xlink="http://www.w3.org/1999/xlink" x="0px" y="0px"
	 viewBox="0 0 83 83" style="enable-background:new 0 0 83 83;" xml:space="preserve">
<style type="text/css">
	.st0{fill:#1F3F7E;}
	.st1{fill:none;stroke:#FFFFFF;stroke-width:3;stroke-miterlimit:10;}
	.st2{fill:#FFFFFF;}
	.st3{opacity:0.7;fill:#FFFFFF;}
	.st4{fill:#0D5BD6;}
</style>
<path class="st0" d="M83,41.5C83,64.4,64.4,83,41.5,83S0,64.4,0,41.5S18.6,0,41.5,0S83,18.6,83,41.5"/>
<circle class="st1" cx="41.5" cy="41.5" r="35.1"/>
<g>
	<path class="st2" d="M28.6,33.6c0.2,0,0.4,0,0.5-0.1l20.8-8l0,0l4.9-1.9c0.7-0.3,1-1,0.7-1.6s-1.1-0.9-1.8-0.6l-3,1.2v-6.8
		c0-0.7-0.6-1.2-1.4-1.2H33.1c-0.7,0-1.4,0.5-1.4,1.2v14.1L28,31.3c-0.7,0.3-1,1-0.7,1.6C27.6,33.3,28.1,33.6,28.6,33.6z M34.5,16.9
		h13.6v6.6l-13.6,5.3V16.9L34.5,16.9z"/>
	<path class="st2" d="M53.8,33.7l-3,1.2v-5.5c0-0.7-0.6-1.2-1.4-1.2S48,28.7,48,29.4v6.5l-13.6,5.3v-6.3c0-0.7-0.6-1.2-1.4-1.2
		s-1.4,0.5-1.4,1.2v7.4l-3.7,1.4c-0.7,0.3-1,1-0.7,1.6c0.2,0.5,0.7,0.7,1.2,0.7c0.2,0,0.4,0,0.5-0.1l4.5-1.7l0,0L50,37.9l0,0
		l4.9-1.9c0.7-0.3,1-1,0.7-1.6C55.3,33.8,54.5,33.5,53.8,33.7z"/>
	<path class="st2" d="M53.8,46.1l-3,1.2v-5.8c0-0.7-0.6-1.2-1.4-1.2S48,40.8,48,41.5v6.8l-13.6,5.3v-6.3c0-0.7-0.6-1.2-1.4-1.2
		s-1.4,0.5-1.4,1.2v7.4L28.1,56c-0.7,0.3-1,1-0.7,1.6c0.2,0.5,0.7,0.7,1.2,0.7c0.2,0,0.4,0,0.5-0.1l3.7-1.4L40,67.9
		c0.2,0.4,0.7,0.6,1.2,0.6s0.9-0.2,1.2-0.6l8.2-12.5c0.1-0.2,0.2-0.4,0.2-0.6V50l4.1-1.6c0.7-0.3,1-1,0.7-1.6
		C55.3,46.2,54.5,45.9,53.8,46.1z M48.1,54.4l-6.8,10.5l-5.9-9L48.1,51V54.4z"/>
</g>
<path class="st3" d="M41.5,83L41.5,83C18.6,83,0,64.4,0,41.5v0C0,18.6,18.6,0,41.5,0h0C64.4,0,83,18.6,83,41.5v0
	C83,64.4,64.4,83,41.5,83z"/>
<g>
	<path class="st4" d="M53,38.8h-8.8V30c0-0.4-0.4-0.8-0.8-0.8h-4.8c-0.4,0-0.8,0.4-0.8,0.8v8.8H29c-0.4,0-0.8,0.4-0.8,0.8v4.8
		c0,0.4,0.4,0.8,0.8,0.8h8.8V54c0,0.4,0.4,0.8,0.8,0.8h4.8c0.4,0,0.8-0.4,0.8-0.8v-8.8H53c0.4,0,0.8-0.4,0.8-0.8v-4.8
		C53.8,39.2,53.4,38.8,53,38.8z"/>
</g>
</svg>
