<?xml version="1.0" encoding="utf-8"?>
<!-- Generator: Adobe Illustrator 21.0.0, SVG Export Plug-In . SVG Version: 6.00 Build 0)  -->
<svg version="1.1" id="Capa_1" xmlns="http://www.w3.org/2000/svg" xmlns:xlink="http://www.w3.org/1999/xlink" x="0px" y="0px"
	 viewBox="0 0 83 83" style="enable-background:new 0 0 83 83;" xml:space="preserve">
<style type="text/css">
	.st0{fill:#1F3F7E;}
	.st1{fill:none;stroke:#FFFFFF;stroke-width:3;stroke-miterlimit:10;}
	.st2{fill:#FFFFFF;}
</style>
<g>
	<path class="st0" d="M83,41.5C83,64.4,64.4,83,41.5,83C18.6,83,0,64.4,0,41.5C0,18.6,18.6,0,41.5,0C64.4,0,83,18.6,83,41.5"/>
	<circle class="st1" cx="41.5" cy="41.5" r="35.1"/>
	<path class="st2" d="M9.8,40.8c0,0,0.7-0.5,2-1.4c0.6-0.4,1.4-1,2.3-1.6c0.4-0.3,0.9-0.6,1.4-1c0.5-0.3,1.1-0.5,1.7-0.8
		c4.7-2.3,11.1-5.4,17.4-8.5c6.3-3.1,12.6-6.2,17.4-8.5c0.6-0.3,1.1-0.6,1.7-0.8c0.6-0.2,1.1-0.4,1.6-0.6c1-0.3,1.9-0.6,2.7-0.9
		c1.5-0.5,2.3-0.7,2.3-0.7s-0.7,0.5-2,1.4c-0.6,0.4-1.4,1-2.3,1.6c-0.4,0.3-0.9,0.6-1.4,1c-0.5,0.3-1.1,0.5-1.7,0.9
		c-4.7,2.3-11.1,5.4-17.4,8.5c-6.3,3.1-12.6,6.2-17.4,8.5c-0.6,0.3-1.1,0.6-1.7,0.8c-0.6,0.2-1.1,0.4-1.6,0.6
		c-1,0.4-1.9,0.6-2.7,0.9C10.7,40.5,9.8,40.8,9.8,40.8"/>
	<path class="st2" d="M33.9,73.5c0,0,0.5-0.7,1.4-1.8c0.4-0.6,1-1.3,1.6-2.1c0.3-0.4,0.7-0.8,1-1.3c0.4-0.4,0.9-0.8,1.3-1.2
		c3.6-3.4,8.4-7.8,13.3-12.3c4.8-4.5,9.7-9,13.3-12.3c0.5-0.4,0.8-0.9,1.3-1.2c0.5-0.3,0.9-0.6,1.3-0.9c0.8-0.6,1.6-1.1,2.2-1.5
		c1.2-0.8,1.9-1.3,1.9-1.3s-0.5,0.7-1.4,1.8c-0.5,0.6-1,1.3-1.6,2.1c-0.3,0.4-0.7,0.8-1,1.3c-0.4,0.5-0.9,0.8-1.3,1.2
		c-3.6,3.4-8.4,7.8-13.3,12.3c-4.8,4.5-9.7,9-13.3,12.3c-0.5,0.4-0.8,0.9-1.3,1.2c-0.5,0.3-0.9,0.6-1.3,0.9
		c-0.8,0.6-1.6,1.1-2.2,1.5C34.6,73,33.9,73.5,33.9,73.5"/>
	<path class="st2" d="M15.4,58.9c0,0,1.2-0.9,2.4-1.8l2.4-1.8l0.4,0.6c0,0-1.3,0.8-2.6,1.5C16.7,58.1,15.4,58.9,15.4,58.9"/>
	<path class="st2" d="M46.3,37.6c0,0,2.2-1.4,4.4-2.8c2.2-1.4,4.4-2.8,4.4-2.8l0.9,1.3c0,0-2.2,1.5-4.3,3c-2.2,1.5-4.4,2.9-4.4,2.9
		L46.3,37.6z"/>
	<path class="st2" d="M64.1,26.6c0,0,1.3-0.8,2.6-1.5c1.3-0.7,2.6-1.5,2.6-1.5s-1.2,0.9-2.4,1.8c-1.2,0.9-2.4,1.8-2.4,1.8L64.1,26.6
		z"/>
	<path class="st2" d="M30.2,48.2c0,0,2.2-1.4,4.4-2.8c2.2-1.4,4.4-2.8,4.4-2.8L40,44c0,0-2.2,1.5-4.3,3c-2.2,1.5-4.4,2.9-4.4,2.9
		L30.2,48.2z"/>
</g>
</svg>
