<?xml version="1.0" encoding="utf-8"?>
<!-- Generator: Adobe Illustrator 21.0.0, SVG Export Plug-In . SVG Version: 6.00 Build 0)  -->
<svg version="1.1" id="Capa_1" xmlns="http://www.w3.org/2000/svg" xmlns:xlink="http://www.w3.org/1999/xlink" x="0px" y="0px"
	 viewBox="0 0 83 83" style="enable-background:new 0 0 83 83;" xml:space="preserve">
<style type="text/css">
	.st0{fill:#203F7D;}
	.st1{fill:none;stroke:#FFFFFF;stroke-width:3;stroke-miterlimit:10;}
	.st2{fill:#FFFFFF;}
</style>
<g>
	<path class="st0" d="M83,41.5C83,64.4,64.4,83,41.5,83C18.6,83,0,64.4,0,41.5C0,18.6,18.6,0,41.5,0C64.4,0,83,18.6,83,41.5"/>
	<circle class="st1" cx="41.5" cy="41.8" r="35.1"/>
	<g>
		<path class="st2" d="M17.2,51.7v3.1c0,2.1,1.7,3.8,3.8,3.8h27.2c2.1,0,3.8-1.7,3.8-3.8v-3.1c0-2.1-1.7-3.8-3.8-3.8H48V40
			c0-0.5-0.3-0.9-0.8-1l-8.5-2.1l-4.2-12.4H38v-2.1H26.1c-0.6,0-1,0.5-1,1.1v13.4h-3.6c-0.6,0-1,0.5-1,1.1v10
			C18.6,48.2,17.2,49.8,17.2,51.7z M32.3,24.5l4.2,12.3h-9.3V24.5H32.3z M45.9,47.8H22.5v-8.9h15.8l7.6,1.9V47.8z M19.3,51.7
			c0-1,0.8-1.7,1.7-1.7h27.2c1,0,1.7,0.8,1.7,1.7v3.1c0,1-0.8,1.7-1.7,1.7H21c-1,0-1.7-0.8-1.7-1.7V51.7z"/>
		<path class="st2" d="M46.6,53.9l-1.7,1.2l-1.8-2.6l1.7-1.2L46.6,53.9z M39.7,51.3L38,52.5l1.8,2.6l1.7-1.2L39.7,51.3z M34.6,51.3
			l-1.7,1.2l1.8,2.6l1.7-1.2L34.6,51.3z M29.5,51.3l-1.7,1.2l1.8,2.6l1.7-1.2L29.5,51.3z M24.3,51.3l-1.7,1.2l1.8,2.6l1.7-1.2
			L24.3,51.3z"/>
		<path class="st2" d="M53.6,38.5v19.1c0,0.6,0.5,1.1,1,1.1h10.8c0.4,0,0.7-0.2,0.9-0.5c0.2-0.3,0.2-0.7,0-1L55.5,38
			c-0.2-0.4-0.7-0.6-1.2-0.5C53.9,37.6,53.6,38,53.6,38.5z M55.7,42.4l8,14h-8C55.7,56.5,55.7,42.4,55.7,42.4z"/>
	</g>
</g>
</svg>
