<?xml version="1.0" encoding="utf-8"?>
<!-- Generator: Adobe Illustrator 19.2.1, SVG Export Plug-In . SVG Version: 6.00 Build 0)  -->
<svg version="1.1" id="Capa_1" xmlns="http://www.w3.org/2000/svg" xmlns:xlink="http://www.w3.org/1999/xlink" x="0px" y="0px"
	 viewBox="0 0 83 83" style="enable-background:new 0 0 83 83;" xml:space="preserve">
<style type="text/css">
	.st0{fill:#203F7D;}
	.st1{fill:none;stroke:#FFFFFF;stroke-width:3;stroke-miterlimit:10;}
	.st2{fill:#FFFFFF;}
	.st3{opacity:0.7;fill:#FFFFFF;}
	.st4{fill:#0D5BD6;}
</style>
<g>
	<path class="st0" d="M83,41.5C83,64.4,64.4,83,41.5,83S0,64.4,0,41.5c0-23,18.6-41.6,41.5-41.6S83,18.5,83,41.5"/>
	<ellipse class="st1" cx="41.5" cy="41.5" rx="35.1" ry="35.2"/>
	<path class="st2" d="M29.2,25c0,2.5-2,4.5-4.5,4.5s-4.5-2-4.5-4.5s2-4.5,4.5-4.5S29.2,22.5,29.2,25"/>
	<path class="st2" d="M40.2,25c0,2.5-2,4.5-4.5,4.5s-4.5-2-4.5-4.5s2-4.5,4.5-4.5S40.2,22.5,40.2,25"/>
	<path class="st2" d="M51.3,25c0,2.5-2,4.5-4.5,4.5s-4.5-2-4.5-4.5s2-4.5,4.5-4.5S51.3,22.5,51.3,25"/>
	<path class="st2" d="M62.3,25c0,2.5-2,4.5-4.5,4.5s-4.5-2-4.5-4.5s2-4.5,4.5-4.5S62.3,22.5,62.3,25"/>
	<path class="st2" d="M29.2,46.8c0,2.5-2,4.5-4.5,4.5s-4.5-2-4.5-4.5s2-4.5,4.5-4.5S29.2,44.3,29.2,46.8"/>
	<path class="st2" d="M40.2,46.8c0,2.5-2,4.5-4.5,4.5s-4.5-2-4.5-4.5s2-4.5,4.5-4.5S40.2,44.3,40.2,46.8"/>
	<path class="st2" d="M51.3,46.8c0,2.5-2,4.5-4.5,4.5s-4.5-2-4.5-4.5s2-4.5,4.5-4.5S51.3,44.3,51.3,46.8"/>
	<path class="st2" d="M62.3,46.8c0,2.5-2,4.5-4.5,4.5s-4.5-2-4.5-4.5s2-4.5,4.5-4.5S62.3,44.3,62.3,46.8"/>
	<path class="st2" d="M34.7,36.1c0,2.5-2,4.5-4.5,4.5s-4.5-2-4.5-4.5s2-4.5,4.5-4.5C32.7,31.6,34.7,33.6,34.7,36.1"/>
	<path class="st2" d="M45.7,36.1c0,2.5-2,4.5-4.5,4.5s-4.5-2-4.5-4.5s2-4.5,4.5-4.5C43.7,31.6,45.7,33.6,45.7,36.1"/>
	<path class="st2" d="M56.8,36.1c0,2.5-2,4.5-4.5,4.5s-4.5-2-4.5-4.5s2-4.5,4.5-4.5C54.8,31.6,56.8,33.6,56.8,36.1"/>
	<path class="st2" d="M34.7,58.1c0,2.5-2,4.5-4.5,4.5s-4.5-2-4.5-4.5s2-4.5,4.5-4.5S34.7,55.6,34.7,58.1"/>
	<path class="st2" d="M45.7,58.1c0,2.5-2,4.5-4.5,4.5s-4.5-2-4.5-4.5s2-4.5,4.5-4.5S45.7,55.6,45.7,58.1"/>
	<path class="st2" d="M56.8,58.1c0,2.5-2,4.5-4.5,4.5s-4.5-2-4.5-4.5s2-4.5,4.5-4.5S56.8,55.6,56.8,58.1"/>
</g>
<path class="st3" d="M41.5,82.9L41.5,82.9C18.6,82.9,0,64.4,0,41.5v0C0,18.5,18.6-0.1,41.5-0.1h0C64.4-0.1,83,18.5,83,41.4v0
	C83,64.4,64.4,82.9,41.5,82.9z"/>
<g>
	<path class="st4" d="M53,38.8h-8.8V30c0-0.4-0.4-0.8-0.8-0.8h-4.8c-0.4,0-0.8,0.4-0.8,0.8v8.8H29c-0.4,0-0.8,0.4-0.8,0.8v4.8
		c0,0.4,0.4,0.8,0.8,0.8h8.8V54c0,0.4,0.4,0.8,0.8,0.8h4.8c0.4,0,0.8-0.4,0.8-0.8v-8.8H53c0.4,0,0.8-0.4,0.8-0.8v-4.8
		C53.8,39.1,53.4,38.8,53,38.8z"/>
</g>
</svg>
