<?xml version="1.0" encoding="utf-8"?>
<!-- Generator: Adobe Illustrator 21.0.0, SVG Export Plug-In . SVG Version: 6.00 Build 0)  -->
<svg version="1.1" id="Capa_1" xmlns="http://www.w3.org/2000/svg" xmlns:xlink="http://www.w3.org/1999/xlink" x="0px" y="0px"
	 viewBox="0 0 83 83" style="enable-background:new 0 0 83 83;" xml:space="preserve">
<style type="text/css">
	.st0{fill:#203F7D;}
	.st1{fill:none;stroke:#FFFFFF;stroke-width:3;stroke-miterlimit:10;}
	.st2{fill-rule:evenodd;clip-rule:evenodd;fill:#FFFFFF;}
</style>
<g>
	<path class="st0" d="M83,41.5C83,64.4,64.4,83,41.5,83C18.6,83,0,64.4,0,41.5C0,18.5,18.6-0.1,41.5-0.1C64.4-0.1,83,18.5,83,41.5"
		/>
	<ellipse class="st1" cx="41.5" cy="41.5" rx="35.1" ry="35.2"/>
	<path class="st2" d="M29.2,25c0,2.5-2,4.5-4.5,4.5c-2.5,0-4.5-2-4.5-4.5c0-2.5,2-4.5,4.5-4.5C27.2,20.5,29.2,22.5,29.2,25"/>
	<path class="st2" d="M40.2,25c0,2.5-2,4.5-4.5,4.5c-2.5,0-4.5-2-4.5-4.5c0-2.5,2-4.5,4.5-4.5C38.2,20.5,40.2,22.5,40.2,25"/>
	<path class="st2" d="M51.3,25c0,2.5-2,4.5-4.5,4.5c-2.5,0-4.5-2-4.5-4.5c0-2.5,2-4.5,4.5-4.5C49.3,20.5,51.3,22.5,51.3,25"/>
	<path class="st2" d="M62.3,25c0,2.5-2,4.5-4.5,4.5c-2.5,0-4.5-2-4.5-4.5c0-2.5,2-4.5,4.5-4.5C60.3,20.5,62.3,22.5,62.3,25"/>
	<path class="st2" d="M29.2,46.8c0,2.5-2,4.5-4.5,4.5c-2.5,0-4.5-2-4.5-4.5c0-2.5,2-4.5,4.5-4.5C27.2,42.3,29.2,44.3,29.2,46.8"/>
	<path class="st2" d="M40.2,46.8c0,2.5-2,4.5-4.5,4.5c-2.5,0-4.5-2-4.5-4.5c0-2.5,2-4.5,4.5-4.5C38.2,42.3,40.2,44.3,40.2,46.8"/>
	<path class="st2" d="M51.3,46.8c0,2.5-2,4.5-4.5,4.5c-2.5,0-4.5-2-4.5-4.5c0-2.5,2-4.5,4.5-4.5C49.3,42.3,51.3,44.3,51.3,46.8"/>
	<path class="st2" d="M62.3,46.8c0,2.5-2,4.5-4.5,4.5c-2.5,0-4.5-2-4.5-4.5c0-2.5,2-4.5,4.5-4.5C60.3,42.3,62.3,44.3,62.3,46.8"/>
	<path class="st2" d="M34.7,36.1c0,2.5-2,4.5-4.5,4.5c-2.5,0-4.5-2-4.5-4.5c0-2.5,2-4.5,4.5-4.5C32.7,31.6,34.7,33.6,34.7,36.1"/>
	<path class="st2" d="M45.7,36.1c0,2.5-2,4.5-4.5,4.5c-2.5,0-4.5-2-4.5-4.5c0-2.5,2-4.5,4.5-4.5C43.7,31.6,45.7,33.6,45.7,36.1"/>
	<path class="st2" d="M56.8,36.1c0,2.5-2,4.5-4.5,4.5c-2.5,0-4.5-2-4.5-4.5c0-2.5,2-4.5,4.5-4.5C54.8,31.6,56.8,33.6,56.8,36.1"/>
	<path class="st2" d="M34.7,58.1c0,2.5-2,4.5-4.5,4.5c-2.5,0-4.5-2-4.5-4.5c0-2.5,2-4.5,4.5-4.5C32.7,53.6,34.7,55.6,34.7,58.1"/>
	<path class="st2" d="M45.7,58.1c0,2.5-2,4.5-4.5,4.5c-2.5,0-4.5-2-4.5-4.5c0-2.5,2-4.5,4.5-4.5C43.7,53.6,45.7,55.6,45.7,58.1"/>
	<path class="st2" d="M56.8,58.1c0,2.5-2,4.5-4.5,4.5c-2.5,0-4.5-2-4.5-4.5c0-2.5,2-4.5,4.5-4.5C54.8,53.6,56.8,55.6,56.8,58.1"/>
</g>
</svg>
