<?xml version="1.0" encoding="utf-8"?>
<!-- Generator: Adobe Illustrator 21.0.0, SVG Export Plug-In . SVG Version: 6.00 Build 0)  -->
<svg version="1.1" id="Capa_1" xmlns="http://www.w3.org/2000/svg" xmlns:xlink="http://www.w3.org/1999/xlink" x="0px" y="0px"
	 viewBox="0 0 83 83" style="enable-background:new 0 0 83 83;" xml:space="preserve">
<style type="text/css">
	.st0{fill:#203F7D;}
	.st1{fill:none;stroke:#FFFFFF;stroke-width:3;stroke-miterlimit:10;}
	.st2{fill-rule:evenodd;clip-rule:evenodd;fill:#FFFFFF;}
</style>
<g>
	<path class="st0" d="M83,41.5C83,64.4,64.4,83,41.5,83C18.6,83,0,64.4,0,41.5C0,18.6,18.6,0,41.5,0C64.4,0,83,18.6,83,41.5"/>
	<ellipse class="st1" cx="41.5" cy="41.5" rx="35.1" ry="35.1"/>
	<path class="st2" d="M29.6,58H34c-0.3,1.8-0.6,3.5-0.9,5.3c-1.3,0-2.6,0.1-3.9,0c-1-0.1-1.5,0.2-1.6,1.2c-0.1,0.5-0.2,1-0.3,1.6
		h14.1V33.2c5.8,4.5,11.3,8.8,17,13.2H46.5c-0.2-0.7-0.3-1.5-0.6-2.3c-0.1-0.2-0.4-0.5-0.6-0.5c-0.2,0-0.5,0.2-0.6,0.4
		c-1.5,5.7,1.5,11.6,6.5,13.2c5.1,1.7,10.5-1.6,12-7.3c0.1-0.2,0.1-0.5,0.2-0.7c0.5-1.9,0.2-3.4-1.4-4.9
		C51.9,35,41.9,25.4,31.8,15.9c-0.4-0.4-0.8-0.7-1.2-1.1c-0.1,0.3-0.1,0.4-0.1,0.6c-0.1,3-0.2,6-0.2,9.1c0,0.5,0.3,1.1,0.7,1.4
		c0.8,0.7,1.7,1.4,2.6,1.9c0.8,0.5,0.8,1,0.6,1.8c-1.1,3.9-3.5,6.9-6.5,9.5c-0.8,0.7-0.9,1.2-0.6,2.2c0.7,1.9,1.3,3.8,1.9,5.6
		c0.6,1.7,0.6,1.7,2.5,1.4c-0.8-2.4-1.6-4.9-2.5-7.5c3.4,1.6,4.3,4.5,5,7.6h2.7v6.1h-6.1C30.2,55.7,29.9,56.8,29.6,58"/>
</g>
</svg>
