<?xml version="1.0" encoding="utf-8"?>
<!-- Generator: Adobe Illustrator 21.0.0, SVG Export Plug-In . SVG Version: 6.00 Build 0)  -->
<svg version="1.1" id="Capa_1" xmlns="http://www.w3.org/2000/svg" xmlns:xlink="http://www.w3.org/1999/xlink" x="0px" y="0px"
	 viewBox="0 0 83 83" style="enable-background:new 0 0 83 83;" xml:space="preserve">
<style type="text/css">
	.st0{fill:#203F7D;}
	.st1{fill:none;stroke:#FFFFFF;stroke-width:3;stroke-miterlimit:10;}
	.st2{fill:#FFFFFF;}
</style>
<g>
	<path class="st0" d="M83,41.5C83,64.4,64.4,83,41.5,83C18.6,83,0,64.4,0,41.5C0,18.6,18.6,0,41.5,0C64.4,0,83,18.6,83,41.5"/>
	<circle class="st1" cx="41.5" cy="41.5" r="35.1"/>
	<g>
		<path class="st2" d="M21.4,58.9c0,0.4,0.3,0.7,0.7,0.7h22.7c0.4,0,0.7-0.3,0.7-0.7s-0.3-0.7-0.7-0.7H22.1
			C21.7,58.3,21.4,58.6,21.4,58.9z"/>
		<path class="st2" d="M56.7,45.2V19.9c0,0,0,0,0,0c0,0,0,0,0,0c0,0,0,0,0,0c0-0.1-0.1-0.2-0.1-0.3c-0.1-0.2-0.3-0.3-0.6-0.3h-1.3
			c-0.2,0-0.5,0.1-0.6,0.3L42.5,37.2H28.3c-1.1,0-2,0.8-2,1.9v6.3h-1.1c-1.1,0-2,0.8-2,1.9v8h-0.6c-2.1,0-3.9,1.6-3.9,3.7V59
			c0,2,1.7,3.7,3.9,3.7h21.8c2.1,0,3.9-1.6,3.9-3.7v-0.1c0-2-1.7-3.7-3.9-3.7h0l11-31.3v21.2c-2.7,0.3-4.8,2.5-4.8,5.2
			c0,2.9,2.5,5.2,5.5,5.2c3,0,5.5-2.3,5.5-5.2C61.5,47.7,59.4,45.5,56.7,45.2z M24.6,53.5h14c0.4,0,0.7-0.3,0.7-0.7
			c0-0.4-0.3-0.7-0.7-0.7h-14v-4.9c0-0.3,0.3-0.6,0.6-0.6H27c0.4,0,0.7-0.3,0.7-0.7v-6.9c0-0.3,0.3-0.6,0.6-0.6h14l0.3,1H33
			c-0.4,0-0.7,0.3-0.7,0.7v9.5c0,0.4,0.3,0.7,0.7,0.7h8.7v1c0,0.4-0.3,0.7-0.7,0.7c-0.4,0-0.7,0.3-0.7,0.7c0,0.4,0.3,0.7,0.7,0.7
			c0.4,0,0.7,0.3,0.7,0.7v1.1H24.6V53.5z M33.7,49.1v-7.3l6.9,2.8v4.5H33.7z M46.9,58.9L46.9,58.9c0,1.4-1.1,2.4-2.5,2.4H22.6
			c-1.4,0-2.5-1.1-2.5-2.4v-0.1c0-1.3,1.1-2.4,2.5-2.4h21.8C45.8,56.5,46.9,57.6,46.9,58.9z M43.1,54.9v-0.7c0-0.5-0.2-1-0.6-1.4
			c0.3-0.4,0.6-0.8,0.6-1.4v-1.7c0-0.4-0.3-0.7-0.7-0.7h-0.5v-8.2h1.5c0.2,0,0.4-0.1,0.5-0.3c0.1-0.2,0.2-0.4,0.1-0.6l-0.5-1.8
			L55,20.8L43.1,54.9z"/>
	</g>
</g>
</svg>
