<?xml version="1.0" encoding="utf-8"?>
<!-- Generator: Adobe Illustrator 19.2.1, SVG Export Plug-In . SVG Version: 6.00 Build 0)  -->
<svg version="1.1" id="Capa_1" xmlns="http://www.w3.org/2000/svg" xmlns:xlink="http://www.w3.org/1999/xlink" x="0px" y="0px"
	 viewBox="0 0 83 83" style="enable-background:new 0 0 83 83;" xml:space="preserve">
<style type="text/css">
	.st0{fill:#203F7D;}
	.st1{fill:none;stroke:#FFFFFF;stroke-width:3;stroke-miterlimit:10;}
	.st2{fill:#FFFFFF;}
	.st3{opacity:0.7;fill:#FFFFFF;}
	.st4{fill:#0D5BD6;}
</style>
<g>
	<path class="st0" d="M83,41.5C83,64.4,64.4,83,41.5,83S0,64.4,0,41.5S18.6,0,41.5,0S83,18.6,83,41.5"/>
	<circle class="st1" cx="41.5" cy="41.5" r="35.1"/>
	<path class="st2" d="M30.2,46h-2.4c0.2,1,0.3,1.9,0.5,2.9c0.7,0,1.5,0,2.2,0c0.5,0,0.8,0.1,0.9,0.7c0,0.3,0.1,0.6,0.2,0.9h-7.8
		V32.4c-3.2,2.5-6.2,4.8-9.4,7.3h6.5c0.1-0.4,0.2-0.8,0.3-1.2c0-0.1,0.2-0.2,0.3-0.3c0.1,0,0.3,0.1,0.3,0.2c0.8,3.2-0.8,6.4-3.6,7.3
		c-2.8,0.9-5.8-0.9-6.6-4c0-0.1-0.1-0.3-0.1-0.4c-0.3-1.1-0.1-1.9,0.8-2.7c5.6-5.2,11.1-10.5,16.7-15.8c0.2-0.2,0.4-0.4,0.7-0.6
		c0,0.1,0.1,0.2,0.1,0.3c0,1.7,0.1,3.3,0.1,5c0,0.3-0.2,0.6-0.4,0.8c-0.4,0.4-0.9,0.8-1.4,1.1c-0.4,0.3-0.5,0.6-0.3,1
		c0.6,2.2,1.9,3.8,3.6,5.2c0.5,0.4,0.5,0.7,0.3,1.2c-0.4,1-0.7,2.1-1,3.1c-0.3,0.9-0.3,0.9-1.4,0.8c0.4-1.3,0.9-2.7,1.4-4.2
		c-1.9,0.9-2.4,2.5-2.7,4.2h-1.5v3.4h3.4C29.8,44.8,30,45.4,30.2,46"/>
	<path class="st2" d="M51.1,33.2c0,0.7,0,1.3,0,2c0,0.3-0.1,0.8,0.5,0.6v2.4c0.3,0,0.5,0,0.7,0c0.9,0.1,1.4,0.6,1.4,1.5
		c0,0.5,0,1.1,0,1.6c0,0.1,0,0.1-0.1,0.3c-2.2-0.5-4.3-1-6.5-1.6c0,0.6,0,1.2,0,1.8c0,0.2,0.3,0.4,0.5,0.5c1.8,0.8,3.7,1.5,5.6,2.2
		c0.5,0.2,0.6,0.4,0.4,0.9c-3.9,0.6-4.3,1-5.6,4.6h-3.1c0.1-2.9-1-5.2-3.7-6.5c-2.6-1.3-5.1-0.8-7.5,1.1c0.1-0.8,0.1-1.5,0.2-2.2
		c0.5-3.9,0.9-7.8,1.4-11.8c0.1-0.9,0.6-1.4,1.5-1.4c3,0,5.9,0,8.9,0c0.9,0,1.5,0.7,1.6,1.7c0.2,2.3,0.3,4.6,0.5,6.9
		c0,0.1,0,0.2,0,0.3h1.3v-2.2c0.1,0,0.1,0,0.2,0.1c0.1-0.3,0.3-0.5,0.3-0.8c0-0.7,0-1.3,0-2C49.6,33.2,51.1,33.2,51.1,33.2z
		 M36.4,38.1H41v-7.6h-4.1C36.7,33,36.6,35.5,36.4,38.1 M46.3,38.1c-0.2-2.6-0.4-5.1-0.5-7.6h-3.7v7.6H46.3z"/>
	<path class="st2" d="M48,40.6c2.1,0.5,4.1,1,6.2,1.6c0.7,0.2,1.5,0.6,2.1,0.4c0.6-0.2,0.9-1.1,1.3-1.7c0.1-0.1,0.2-0.2,0.3-0.4
		c1.6,1.5,3.1,3,4.6,4.4c0.2-0.2,0.5-0.4,0.7-0.6c2.2,2.2,4.4,4.5,6.6,6.7c0.6-0.3,1.1-0.6,1.5-0.8c0.1,0,0.2,0.1,0.4,0.2
		c-1.4,2.3-3.3,3.7-6,3.5c-2-0.1-3.4-1-4.3-2.8c-0.2-0.3-0.4-0.7-0.6-1c-1.3-1.5-2.6-3-3.9-4.4c-0.3-0.3-0.6-0.5-0.9-0.7
		c-2.4-1-4.8-2.1-7.3-3.1C48,41.7,47.8,41.3,48,40.6 M61,47.8c0.2-0.5,0.4-0.9,0.5-1.3c0-0.1,0-0.3-0.1-0.4
		c-1.1-1.1-2.1-2.2-3.3-3.3c-0.2,0.4-0.4,0.7-0.6,1C58.7,45.1,59.8,46.4,61,47.8"/>
	<path class="st2" d="M33.1,49.2c0-3,2.4-5.2,5.3-5.2c2.8,0,5.2,2.4,5.1,5.3c0,2.8-2.4,5.2-5.3,5.1C35.4,54.4,33.1,52.1,33.1,49.2
		 M41.6,49.2c0-1.8-1.5-3.3-3.3-3.3S35,47.4,35,49.2s1.5,3.3,3.3,3.3S41.6,51.1,41.6,49.2"/>
	<path class="st2" d="M49,50.4c0.1-2.3,1.9-4.1,4.2-4.1s4.2,2,4.1,4.3c-0.1,2.3-2,4.1-4.2,4.1C50.8,54.7,49,52.8,49,50.4 M53.2,53.2
		c1.4,0,2.6-1.1,2.6-2.6s-1.2-2.7-2.6-2.6c-1.4,0-2.6,1.2-2.6,2.6C50.6,52,51.8,53.2,53.2,53.2"/>
	<path class="st2" d="M30.1,43.7h-3.2v-2.6h5.2c0.4,1.2,0.7,2.5,1.1,3.8c0,0.2,0,0.4-0.1,0.6c-0.8,1.1-1.2,2.3-1.3,3.7
		C31.2,47.3,30.6,45.5,30.1,43.7"/>
</g>
<path class="st3" d="M41.5,83L41.5,83C18.6,83,0,64.4,0,41.5v0C0,18.6,18.6,0,41.5,0h0C64.4,0,83,18.6,83,41.5v0
	C83,64.4,64.4,83,41.5,83z"/>
<g>
	<path class="st4" d="M53,38.8h-8.8V30c0-0.4-0.4-0.8-0.8-0.8h-4.8c-0.4,0-0.8,0.4-0.8,0.8v8.8H29c-0.4,0-0.8,0.4-0.8,0.8v4.8
		c0,0.4,0.4,0.8,0.8,0.8h8.8V54c0,0.4,0.4,0.8,0.8,0.8h4.8c0.4,0,0.8-0.4,0.8-0.8v-8.8H53c0.4,0,0.8-0.4,0.8-0.8v-4.8
		C53.8,39.2,53.4,38.8,53,38.8z"/>
</g>
</svg>
