<?xml version="1.0" encoding="utf-8"?>
<!-- Generator: Adobe Illustrator 19.2.1, SVG Export Plug-In . SVG Version: 6.00 Build 0)  -->
<svg version="1.1" id="Capa_1" xmlns="http://www.w3.org/2000/svg" xmlns:xlink="http://www.w3.org/1999/xlink" x="0px" y="0px"
	 viewBox="0 0 83 83" style="enable-background:new 0 0 83 83;" xml:space="preserve">
<style type="text/css">
	.st0{fill:#203F7D;}
	.st1{fill:none;stroke:#FFFFFF;stroke-width:3;stroke-miterlimit:10;}
	.st2{fill:#FFFFFF;}
	.st3{opacity:0.7;fill:#FFFFFF;}
	.st4{fill:#0D5BD6;}
</style>
<g>
	<g>
		<path class="st0" d="M83,41.5C83,64.4,64.4,83,41.5,83S0,64.4,0,41.5S18.6,0,41.5,0S83,18.6,83,41.5"/>
	</g>
	<circle class="st1" cx="41.5" cy="41.8" r="35.1"/>
	<g transform="translate(1 1)">
		<g>
			<g>
				<path class="st2" d="M63,26.8h-4.4c-0.5,0-0.9,0.3-0.9,0.7h-5.4l0.1-0.7c0-1.1-1.1-2-2.6-2H32.2c-1.4,0-2.6,0.9-2.6,2.1l0.1,0.6
					h-5.4c0-0.4-0.4-0.7-0.9-0.7H19c-1.9,0-3.5,1.2-3.5,2.7s1.6,2.7,3.5,2.7h4.4c0.5,0,0.9-0.3,0.9-0.7h5.8l0.9,7.7
					c0.2,1.3,1.4,2.5,3.1,2.8l1.2,5.1c0.2,0.9,1,1.5,2.1,1.6v4c0,0.7,0.3,1.3,0.9,1.8v7.6c0,0.1,0.1,0.3,0.2,0.4l1.8,2
					c0.2,0.1,0.4,0.3,0.7,0.3c0.4,0,0.6-0.1,0.7-0.3l1.8-2c0.1-0.1,0.2-0.3,0.2-0.4v-7.6c0.5-0.5,0.9-1.1,0.9-1.8v-4
					c1-0.2,1.8-0.8,2-1.6l1.2-5.1c1.7-0.4,3-1.5,3.2-2.9l0.9-7.7h5.8c0,0.4,0.4,0.7,0.9,0.7H63c1.9,0,3.5-1.2,3.5-2.7
					C66.5,28,64.9,26.8,63,26.8z M19,30.8c-1,0-1.8-0.6-1.8-1.3s0.8-1.3,1.8-1.3h3.5v2.7H19V30.8z M24.2,30.1v-1.3h5.5l0.2,1.3H24.2
					z M42.7,52.8c0,0.4-0.2,0.7-0.5,0.9c0,0-0.1,0-0.1,0.1c-0.1,0.1-0.5,0.3-0.9,0.3l0,0h-0.1H41h-0.1c-0.4,0-0.8-0.2-1-0.3
					l-0.1-0.1c-0.3-0.2-0.5-0.6-0.5-0.9v-4h3.5L42.7,52.8L42.7,52.8z M41.8,61.9l-0.9,1l-0.9-1v-6.5c0.5,0.1,1.2,0.1,1.8,0
					L41.8,61.9L41.8,61.9z M44.8,46.9c-0.1,0.3-0.4,0.5-0.9,0.5h-0.4h-5.3h-0.3c-0.4,0-0.8-0.2-0.9-0.5l-1-4.8h10L44.8,46.9z
					 M49.2,39c-0.2,0.9-1,1.6-2.1,1.8c-0.1,0-0.2,0-0.3,0h-0.1c-0.1,0-0.2,0-0.3,0H35.3c-0.1,0-0.2,0-0.3,0l0,0c-0.1,0-0.1,0-0.2,0
					c-1.1-0.2-1.9-0.8-2-1.7l-1-8.1c0-0.1,0-0.1,0-0.2l-0.4-2.7V28l-0.1-1.2c0-0.4,0.4-0.7,0.9-0.7h17.6c0.5,0,0.9,0.3,0.9,0.6
					L49.2,39z M52.1,30.1l0.1-0.9v-0.4h5.5v1.3H52.1z M63,30.8h-3.5v-2.7H63c1,0,1.8,0.6,1.8,1.3S63.9,30.8,63,30.8z"/>
				<path class="st2" d="M41.8,38.1H40c-0.5,0-0.9,0.3-0.9,0.7s0.4,0.7,0.9,0.7h1.8c0.5,0,0.9-0.3,0.9-0.7S42.4,38.1,41.8,38.1z"/>
				<path class="st2" d="M43.6,35.5h-5.3c-0.5,0-0.9,0.3-0.9,0.7s0.4,0.7,0.9,0.7h5.3c0.5,0,0.9-0.3,0.9-0.7
					C44.5,35.7,44.1,35.5,43.6,35.5z"/>
				<path class="st2" d="M45.4,32.8h-8.8c-0.5,0-0.9,0.3-0.9,0.7s0.4,0.7,0.9,0.7h8.8c0.5,0,0.9-0.3,0.9-0.7
					C46.2,33.1,45.9,32.8,45.4,32.8z"/>
			</g>
		</g>
	</g>
</g>
<path class="st3" d="M41.5,83L41.5,83C18.6,83,0,64.4,0,41.5v0C0,18.6,18.6,0,41.5,0h0C64.4,0,83,18.6,83,41.5v0
	C83,64.4,64.4,83,41.5,83z"/>
<g>
	<path class="st4" d="M53,38.8h-8.8V30c0-0.4-0.4-0.8-0.8-0.8h-4.8c-0.4,0-0.8,0.4-0.8,0.8v8.8H29c-0.4,0-0.8,0.4-0.8,0.8v4.8
		c0,0.4,0.4,0.8,0.8,0.8h8.8V54c0,0.4,0.4,0.8,0.8,0.8h4.8c0.4,0,0.8-0.4,0.8-0.8v-8.8H53c0.4,0,0.8-0.4,0.8-0.8v-4.8
		C53.8,39.2,53.4,38.8,53,38.8z"/>
</g>
</svg>
