<?xml version="1.0" encoding="utf-8"?>
<!-- Generator: Adobe Illustrator 19.2.1, SVG Export Plug-In . SVG Version: 6.00 Build 0)  -->
<svg version="1.1" id="Capa_1" xmlns="http://www.w3.org/2000/svg" xmlns:xlink="http://www.w3.org/1999/xlink" x="0px" y="0px"
	 viewBox="0 0 83 83" style="enable-background:new 0 0 83 83;" xml:space="preserve">
<style type="text/css">
	.st0{fill:#203F7D;}
	.st1{fill:none;stroke:#FFFFFF;stroke-width:3;stroke-miterlimit:10;}
	.st2{fill:#FFFFFF;}
	.st3{opacity:0.7;fill:#FFFFFF;}
	.st4{fill:#0D5BD6;}
</style>
<g>
	<path class="st0" d="M83,41.5C83,64.4,64.4,83,41.5,83S0,64.4,0,41.5S18.6,0,41.5,0S83,18.6,83,41.5"/>
	<circle class="st1" cx="41.5" cy="41.5" r="35.1"/>
	<g>
		<path class="st2" d="M27.1,34.4c-0.7,0-1.3,0.6-1.3,1.4v6c0,0.8,0.6,1.4,1.3,1.4c0.7,0,1.3-0.6,1.3-1.4v-6
			C28.4,35,27.8,34.4,27.1,34.4z"/>
		<path class="st2" d="M34.4,34.4c-0.7,0-1.3,0.6-1.3,1.4v6c0,0.8,0.6,1.4,1.3,1.4s1.3-0.6,1.3-1.4v-6C35.7,35,35.1,34.4,34.4,34.4z
			"/>
		<path class="st2" d="M41.7,34.4c-0.7,0-1.3,0.6-1.3,1.4v6c0,0.8,0.6,1.4,1.3,1.4s1.3-0.6,1.3-1.4v-6C43,35,42.4,34.4,41.7,34.4z"
			/>
		<path class="st2" d="M59.4,29.8h-8.6c-0.7,0-1.3,0.6-1.3,1.4v16.9h-0.9v-2.6c0,0,0,0,0-0.1c0,0,0,0,0-0.1v-14
			c0-0.8-0.6-1.4-1.3-1.4h-1.2l-5-3c-5.1-3.1-11.3-3.1-16.5-0.2L19,30h-1.4c-0.7,0-1.3,0.6-1.3,1.4v5.7c0,0.4,0.1,0.7,0.3,0.9
			l5.2,6.1h-4.3c-0.7,0-1.3,0.6-1.3,1.4v8.3c0,0.8,0.6,1.4,1.3,1.4h6.8c0.2,3.1,2.6,5.5,5.5,5.5s5.2-2.4,5.5-5.5h12
			c0.7,0,1.3-0.6,1.3-1.4v-2.9h0.9v2.9c0,0.8,0.6,1.4,1.3,1.4h1.6c0.2,3.1,2.6,5.5,5.5,5.5c3,0,5.5-2.6,5.5-5.9
			c1.9-0.9,3.3-2.9,3.3-5.3V37.7C66.7,33.3,63.4,29.8,59.4,29.8z M25.8,29.3c4.4-2.5,9.7-2.5,14.1,0.1l0.9,0.5H24.5L25.8,29.3z
			 M29.8,57.9c-1.6,0-3-1.4-3-3.2s1.3-3.2,3-3.2c1.6,0,3,1.4,3,3.2S31.5,57.9,29.8,57.9z M46.1,52.4H34.9c-0.8-2.2-2.8-3.7-5.1-3.7
			s-4.3,1.6-5.1,3.7h-5.9v-5.5H46L46.1,52.4L46.1,52.4z M46.1,44.1H25.3l-6.5-7.6v-3.8h0.5l0,0l0,0h26.4l0,0H46v11.4H46.1z
			 M57.9,57.9c-1.6,0-3-1.4-3-3.2s1.3-3.2,3-3.2c1.6,0,3,1.4,3,3.2S59.5,57.9,57.9,57.9z M64.2,49.5c0,1.1-0.5,2-1.3,2.5
			c-0.9-2-2.8-3.3-4.9-3.3c-2.3,0-4.3,1.6-5.1,3.7h-0.7V47h12.1L64.2,49.5L64.2,49.5z M64.2,44.2H52.1V32.5h7.3c1.1,0,2.2,0.4,3,1.1
			h-6.6c-0.7,0-1.3,0.6-1.3,1.4v6.3c0,0.8,0.6,1.4,1.3,1.4h8.4V44.2L64.2,44.2z M64.2,40H57v-3.5h7c0.1,0.4,0.1,0.8,0.1,1.2L64.2,40
			L64.2,40z"/>
	</g>
</g>
<path class="st3" d="M41.5,83L41.5,83C18.5,83-0.1,64.4-0.1,41.5v0C-0.1,18.6,18.5,0,41.4,0h0c22.9,0,41.5,18.6,41.5,41.5v0
	C82.9,64.4,64.4,83,41.5,83z"/>
<g>
	<path class="st4" d="M53,38.8h-8.8V30c0-0.4-0.4-0.8-0.8-0.8h-4.8c-0.4,0-0.8,0.4-0.8,0.8v8.8H29c-0.4,0-0.8,0.4-0.8,0.8v4.8
		c0,0.4,0.4,0.8,0.8,0.8h8.8V54c0,0.4,0.4,0.8,0.8,0.8h4.8c0.4,0,0.8-0.4,0.8-0.8v-8.8H53c0.4,0,0.8-0.4,0.8-0.8v-4.8
		C53.8,39.2,53.4,38.8,53,38.8z"/>
</g>
</svg>
