<?xml version="1.0" encoding="utf-8"?>
<!-- Generator: Adobe Illustrator 19.2.1, SVG Export Plug-In . SVG Version: 6.00 Build 0)  -->
<svg version="1.1" id="Capa_1" xmlns="http://www.w3.org/2000/svg" xmlns:xlink="http://www.w3.org/1999/xlink" x="0px" y="0px"
	 viewBox="0 0 50 50" style="enable-background:new 0 0 50 50;" xml:space="preserve">
<style type="text/css">
	.st0{fill:#3A93EE;}
	.st1{fill:#2378D4;}
	.st2{fill:#FFFFFF;}
</style>
<rect x="7.7" y="7.5" class="st0" width="35" height="35"/>
<rect x="7.5" y="7.5" transform="matrix(0.9541 -0.2996 0.2996 0.9541 -6.3415 8.6384)" class="st1" width="35" height="35"/>
<g>
	<path class="st2" d="M24,14.2c-5.2,0-9.4,4.2-9.4,9.4c0,1.4,0.3,2.6,0.8,3.8c2.4,5.2,6.9,10.6,8.2,12.1c0.1,0.1,0.2,0.2,0.4,0.2
		c0.2,0,0.3-0.1,0.4-0.2c1.3-1.5,5.8-7,8.2-12.1c0.5-1.2,0.8-2.5,0.8-3.8C33.4,18.4,29.2,14.2,24,14.2z M24,28.5
		c-2.7,0-4.9-2.2-4.9-4.9c0-2.7,2.2-4.9,4.9-4.9s4.9,2.2,4.9,4.9C28.9,26.3,26.7,28.5,24,28.5z"/>
</g>
</svg>
